<svg width="1200" height="675" viewBox="0 0 1200 675" fill="none" xmlns="http://www.w3.org/2000/svg">
  <defs>
    <linearGradient id="bg2" x1="0" y1="0" x2="1" y2="1">
      <stop offset="0%" stop-color="#0d0f12" />
      <stop offset="100%" stop-color="#151820" />
    </linearGradient>
  </defs>
  <rect width="1200" height="675" rx="30" fill="url(#bg2)"/>
  <rect x="60" y="60" width="1080" height="555" rx="22" fill="rgba(255,255,255,0.02)" stroke="rgba(255,255,255,0.16)" />
  <text x="95" y="120" fill="white" opacity="0.65" font-family="Arial, sans-serif" font-size="38" font-weight="700">automation + payments</text>
  <text x="95" y="170" fill="rgba(255,255,255,0.45)" font-family="Arial, sans-serif" font-size="24">checkout fill and x402 in one route</text>
  <rect x="95" y="205" width="500" height="390" rx="16" fill="#111318" stroke="#05d96a55" />
  <text x="130" y="250" fill="#9dffcc" font-family="Arial, sans-serif" font-size="30">checkout pipeline</text>
  <rect x="140" y="285" width="420" height="70" rx="12" fill="#0b1015" stroke="rgba(255,255,255,0.2)" />
  <text x="170" y="332" fill="#8df8d0" font-family="Arial, sans-serif" font-size="24">card number</text>
  <rect x="140" y="370" width="420" height="70" rx="12" fill="#0b1015" stroke="rgba(255,255,255,0.2)" />
  <text x="170" y="417" fill="#8df8d0" font-family="Arial, sans-serif" font-size="24">cvv · expiry · zip</text>
  <rect x="140" y="455" width="420" height="66" rx="12" fill="#00d9aa22" stroke="#00d9aa66" />
  <text x="170" y="500" fill="#00d9aa" font-family="Arial, sans-serif" font-size="30">purchase complete</text>

  <rect x="640" y="205" width="495" height="190" rx="16" fill="#111318" stroke="#ffffff33" />
  <text x="680" y="250" fill="#9dffcc" font-family="Arial, sans-serif" font-size="30">x402 fallback</text>
  <circle cx="695" cy="300" r="16" fill="#05d96a"/>
  <text x="730" y="307" fill="white" opacity="0.8" font-family="Arial, sans-serif" font-size="24">402 payment required</text>
  <text x="730" y="345" fill="white" opacity="0.7" font-family="Arial, sans-serif" font-size="24">bip pays on protocol rail</text>
  <rect x="640" y="405" width="495" height="190" rx="16" fill="#111318" stroke="#ffffff33" />
  <text x="680" y="450" fill="#9dffcc" font-family="Arial, sans-serif" font-size="30">result</text>
  <text x="680" y="495" fill="white" opacity="0.8" font-family="Arial, sans-serif" font-size="24">tokenized purchase</text>
  <text x="680" y="535" fill="white" opacity="0.6" font-family="Arial, sans-serif" font-size="24">no human intervention</text>
</svg>
